<svg width="178" height="178" viewBox="0 0 178 178" fill="none" xmlns="http://www.w3.org/2000/svg">
<g filter="url(#filter0_dg_8_842)">
<circle cx="88.55" cy="88.55" r="31" fill="#F46B41"/>
</g>
<rect x="47.55" y="74.55" width="126" height="28" rx="14" fill="white" fill-opacity="0.8"/>
<path d="M60.786 94.55C60.434 94.55 60.1087 94.4647 59.81 94.294C59.522 94.1233 59.2927 93.894 59.122 93.606C58.9513 93.3073 58.866 92.982 58.866 92.63V92.182H60.162V92.63C60.162 92.8007 60.2207 92.95 60.338 93.078C60.466 93.1953 60.6153 93.254 60.786 93.254H68.466C68.6367 93.254 68.7807 93.1953 68.898 93.078C69.026 92.95 69.09 92.8007 69.09 92.63V90.054C69.09 89.8833 69.026 89.7393 68.898 89.622C68.7807 89.5047 68.6367 89.446 68.466 89.446H60.786C60.434 89.446 60.1087 89.3607 59.81 89.19C59.522 89.0087 59.2927 88.774 59.122 88.486C58.9513 88.198 58.866 87.878 58.866 87.526V84.95C58.866 84.598 58.9513 84.278 59.122 83.99C59.2927 83.6913 59.522 83.4567 59.81 83.286C60.1087 83.1153 60.434 83.03 60.786 83.03H68.466C68.818 83.03 69.138 83.1153 69.426 83.286C69.7247 83.4567 69.9593 83.6913 70.13 83.99C70.3007 84.278 70.386 84.598 70.386 84.95V85.398H69.09V84.95C69.09 84.7793 69.026 84.6353 68.898 84.518C68.7807 84.39 68.6367 84.326 68.466 84.326H60.786C60.6153 84.326 60.466 84.39 60.338 84.518C60.2207 84.6353 60.162 84.7793 60.162 84.95V87.526C60.162 87.6967 60.2207 87.8407 60.338 87.958C60.466 88.0753 60.6153 88.134 60.786 88.134H68.466C68.818 88.134 69.138 88.2247 69.426 88.406C69.7247 88.5767 69.9593 88.806 70.13 89.094C70.3007 89.382 70.386 89.702 70.386 90.054V92.63C70.386 92.982 70.3007 93.3073 70.13 93.606C69.9593 93.894 69.7247 94.1233 69.426 94.294C69.138 94.4647 68.818 94.55 68.466 94.55H60.786ZM72.0703 98.23V85.27H79.5903C79.9423 85.27 80.2623 85.3607 80.5503 85.542C80.8489 85.7127 81.0836 85.9473 81.2543 86.246C81.4356 86.534 81.5263 86.854 81.5263 87.206V92.614C81.5263 92.966 81.4356 93.2913 81.2543 93.59C81.0836 93.878 80.8489 94.1127 80.5503 94.294C80.2623 94.4647 79.9423 94.55 79.5903 94.55H73.3823V98.23H72.0703ZM74.0223 93.238H79.5903C79.7609 93.238 79.9049 93.1793 80.0223 93.062C80.1503 92.934 80.2143 92.7847 80.2143 92.614V87.206C80.2143 87.0353 80.1503 86.8913 80.0223 86.774C79.9049 86.646 79.7609 86.582 79.5903 86.582H74.0223C73.8516 86.582 73.7023 86.646 73.5743 86.774C73.4463 86.8913 73.3823 87.0353 73.3823 87.206V92.614C73.3823 92.7847 73.4463 92.934 73.5743 93.062C73.7023 93.1793 73.8516 93.238 74.0223 93.238ZM84.5993 94.55C84.2473 94.55 83.9219 94.4647 83.6233 94.294C83.3353 94.1127 83.1006 93.878 82.9193 93.59C82.7486 93.2913 82.6633 92.966 82.6633 92.614V89.254H90.7913V87.206C90.7913 87.0353 90.7273 86.8913 90.5993 86.774C90.4819 86.646 90.3379 86.582 90.1673 86.582H82.6633V85.27H90.1673C90.5299 85.27 90.8553 85.3607 91.1433 85.542C91.4419 85.7127 91.6766 85.9473 91.8473 86.246C92.0286 86.534 92.1193 86.854 92.1193 87.206V94.55H84.5993ZM84.5993 93.238H90.7913V90.566H83.9753V92.614C83.9753 92.7847 84.0339 92.934 84.1513 93.062C84.2793 93.1793 84.4286 93.238 84.5993 93.238ZM93.6945 94.55V87.206C93.6945 86.854 93.7798 86.534 93.9505 86.246C94.1318 85.9473 94.3665 85.7127 94.6545 85.542C94.9532 85.3607 95.2785 85.27 95.6305 85.27H100.847V86.582H95.6305C95.4598 86.582 95.3105 86.646 95.1825 86.774C95.0652 86.8913 95.0065 87.0353 95.0065 87.206V94.55H93.6945ZM101.914 94.55V82.23H103.226V89.254H105.786L109.434 85.27H111.162V85.286L106.954 89.91L111.146 94.534V94.55H109.434L105.786 90.566H103.226V94.55H101.914ZM112.338 94.55V83.03H121.442C121.794 83.03 122.114 83.1153 122.402 83.286C122.7 83.4567 122.935 83.6913 123.106 83.99C123.276 84.278 123.362 84.598 123.362 84.95V87.398C123.362 87.5473 123.34 87.6967 123.298 87.846C123.266 87.9847 123.218 88.118 123.154 88.246C123.388 88.598 123.564 88.902 123.682 89.158C123.799 89.414 123.858 89.6753 123.858 89.942V92.63C123.858 92.982 123.772 93.3073 123.602 93.606C123.431 93.894 123.196 94.1233 122.898 94.294C122.61 94.4647 122.29 94.55 121.938 94.55H112.338ZM114.258 93.254H121.938C122.108 93.254 122.252 93.1953 122.37 93.078C122.498 92.95 122.562 92.8007 122.562 92.63V89.942C122.562 89.7713 122.498 89.6273 122.37 89.51C122.252 89.382 122.108 89.318 121.938 89.318H114.258C114.087 89.318 113.938 89.382 113.81 89.51C113.692 89.6273 113.634 89.7713 113.634 89.942V92.63C113.634 92.8007 113.692 92.95 113.81 93.078C113.938 93.1953 114.087 93.254 114.258 93.254ZM114.258 88.022H121.442C121.612 88.022 121.756 87.9633 121.874 87.846C121.991 87.718 122.05 87.5687 122.05 87.398V84.95C122.05 84.7793 121.991 84.6353 121.874 84.518C121.756 84.39 121.612 84.326 121.442 84.326H114.258C114.087 84.326 113.938 84.39 113.81 84.518C113.692 84.6353 113.634 84.7793 113.634 84.95V87.398C113.634 87.5687 113.692 87.718 113.81 87.846C113.938 87.9633 114.087 88.022 114.258 88.022ZM125.634 94.55V83.03H136.146V84.326H126.93V88.134H134.338V89.446H126.93V93.254H136.146V94.55H125.634ZM147.58 94.55L143.82 90.07H145.516L149.292 94.534V94.55H147.58ZM137.852 94.55V83.046H147.452C147.804 83.046 148.124 83.1367 148.412 83.318C148.711 83.4887 148.946 83.718 149.116 84.006C149.287 84.294 149.372 84.614 149.372 84.966V88.342C149.372 88.694 149.287 89.014 149.116 89.302C148.946 89.59 148.711 89.8247 148.412 90.006C148.124 90.1767 147.804 90.262 147.452 90.262H139.148V94.55H137.852ZM139.772 88.95H147.452C147.623 88.95 147.767 88.8913 147.884 88.774C148.012 88.6567 148.076 88.5127 148.076 88.342V84.966C148.076 84.7953 148.012 84.6513 147.884 84.534C147.767 84.406 147.623 84.342 147.452 84.342H139.772C139.602 84.342 139.452 84.406 139.324 84.534C139.207 84.6513 139.148 84.7953 139.148 84.966V88.342C139.148 88.5127 139.207 88.6567 139.324 88.774C139.452 88.8913 139.602 88.95 139.772 88.95ZM155.599 94.55V84.326H150.479V83.03H161.999V84.326H156.895V94.55H155.599Z" fill="#161616"/>
<defs>
<filter id="filter0_dg_8_842" x="3.8147e-06" y="-1.14441e-05" width="177.1" height="177.1" filterUnits="userSpaceOnUse" color-interpolation-filters="sRGB">
<feFlood flood-opacity="0" result="BackgroundImageFix"/>
<feColorMatrix in="SourceAlpha" type="matrix" values="0 0 0 0 0 0 0 0 0 0 0 0 0 0 0 0 0 0 127 0" result="hardAlpha"/>
<feOffset dx="32"/>
<feComposite in2="hardAlpha" operator="out"/>
<feColorMatrix type="matrix" values="0 0 0 0 0.00428891 0 0 0 0 0.0930694 0 0 0 0 0.892094 0 0 0 0.56 0"/>
<feBlend mode="normal" in2="BackgroundImageFix" result="effect1_dropShadow_8_842"/>
<feBlend mode="normal" in="SourceGraphic" in2="effect1_dropShadow_8_842" result="shape"/>
<feTurbulence type="fractalNoise" baseFrequency="0.58479529619216919 0.58479529619216919" numOctaves="3" seed="2573" />
<feDisplacementMap in="shape" scale="115.09999847412109" xChannelSelector="R" yChannelSelector="G" result="displacedImage" width="100%" height="100%" />
<feMerge result="effect2_texture_8_842">
<feMergeNode in="displacedImage"/>
</feMerge>
</filter>
</defs>
</svg>
