<?xml version="1.0" encoding="UTF-8" standalone="no"?>
<svg
   width="177.55313"
   height="140.97968"
   viewBox="0 0 177.55313 140.97968"
   fill="none"
   version="1.1"
   id="svg3"
   sodipodi:docname="logo.svg"
   inkscape:version="1.4.2 (ebf0e940, 2025-05-08)"
   xmlns:inkscape="http://www.inkscape.org/namespaces/inkscape"
   xmlns:sodipodi="http://sodipodi.sourceforge.net/DTD/sodipodi-0.dtd"
   xmlns="http://www.w3.org/2000/svg"
   xmlns:svg="http://www.w3.org/2000/svg">
  <sodipodi:namedview
     id="namedview3"
     pagecolor="#ffffff"
     bordercolor="#000000"
     borderopacity="0.25"
     inkscape:showpageshadow="2"
     inkscape:pageopacity="0.0"
     inkscape:pagecheckerboard="0"
     inkscape:deskcolor="#d1d1d1"
     inkscape:zoom="3.1990426"
     inkscape:cx="76.429118"
     inkscape:cy="57.829803"
     inkscape:window-width="1536"
     inkscape:window-height="949"
     inkscape:window-x="0"
     inkscape:window-y="25"
     inkscape:window-maximized="0"
     inkscape:current-layer="svg3" />
  <g
     filter="url(#filter0_dg_8_842)"
     id="g1"
     transform="translate(-14.312593,-18.443018)"
     clip-path="url(#clipPath18)">
    <circle
       fill="#f46b41"
       id="circle1"
       r="31"
       cy="88.550003"
       cx="88.550003" />
  </g>
  <rect
     x="33.237408"
     y="56.106987"
     width="126"
     height="28"
     rx="14"
     fill="#ffffff"
     fill-opacity="0.8"
     id="rect1" />
  <path
     d="m 46.473407,76.106982 c -0.352,0 -0.6773,-0.0853 -0.976,-0.256 -0.288,-0.1707 -0.5173,-0.4 -0.688,-0.688 -0.1707,-0.2987 -0.256,-0.624 -0.256,-0.976 v -0.448 h 1.296 v 0.448 c 0,0.1707 0.0587,0.32 0.176,0.448 0.128,0.1173 0.2773,0.176 0.448,0.176 h 7.68 c 0.1707,0 0.3147,-0.0587 0.432,-0.176 0.128,-0.128 0.192,-0.2773 0.192,-0.448 v -2.576 c 0,-0.1707 -0.064,-0.3147 -0.192,-0.432 -0.1173,-0.1173 -0.2613,-0.176 -0.432,-0.176 h -7.68 c -0.352,0 -0.6773,-0.0853 -0.976,-0.256 -0.288,-0.1813 -0.5173,-0.416 -0.688,-0.704 -0.1707,-0.288 -0.256,-0.608 -0.256,-0.96 v -2.576 c 0,-0.352 0.0853,-0.672 0.256,-0.96 0.1707,-0.2987 0.4,-0.5333 0.688,-0.704 0.2987,-0.1707 0.624,-0.256 0.976,-0.256 h 7.68 c 0.352,0 0.672,0.0853 0.96,0.256 0.2987,0.1707 0.5333,0.4053 0.704,0.704 0.1707,0.288 0.256,0.608 0.256,0.96 v 0.448 h -1.296 v -0.448 c 0,-0.1707 -0.064,-0.3147 -0.192,-0.432 -0.1173,-0.128 -0.2613,-0.192 -0.432,-0.192 h -7.68 c -0.1707,0 -0.32,0.064 -0.448,0.192 -0.1173,0.1173 -0.176,0.2613 -0.176,0.432 v 2.576 c 0,0.1707 0.0587,0.3147 0.176,0.432 0.128,0.1173 0.2773,0.176 0.448,0.176 h 7.68 c 0.352,0 0.672,0.0907 0.96,0.272 0.2987,0.1707 0.5333,0.4 0.704,0.688 0.1707,0.288 0.256,0.608 0.256,0.96 v 2.576 c 0,0.352 -0.0853,0.6773 -0.256,0.976 -0.1707,0.288 -0.4053,0.5173 -0.704,0.688 -0.288,0.1707 -0.608,0.256 -0.96,0.256 z m 11.2843,3.68 v -12.96 h 7.52 c 0.352,0 0.672,0.0907 0.96,0.272 0.2986,0.1707 0.5333,0.4053 0.704,0.704 0.1813,0.288 0.272,0.608 0.272,0.96 v 5.408 c 0,0.352 -0.0907,0.6773 -0.272,0.976 -0.1707,0.288 -0.4054,0.5227 -0.704,0.704 -0.288,0.1707 -0.608,0.256 -0.96,0.256 h -6.208 v 3.68 z m 1.952,-4.992 h 5.568 c 0.1706,0 0.3146,-0.0587 0.432,-0.176 0.128,-0.128 0.192,-0.2773 0.192,-0.448 v -5.408 c 0,-0.1707 -0.064,-0.3147 -0.192,-0.432 -0.1174,-0.128 -0.2614,-0.192 -0.432,-0.192 h -5.568 c -0.1707,0 -0.32,0.064 -0.448,0.192 -0.128,0.1173 -0.192,0.2613 -0.192,0.432 v 5.408 c 0,0.1707 0.064,0.32 0.192,0.448 0.128,0.1173 0.2773,0.176 0.448,0.176 z m 10.577,1.312 c -0.352,0 -0.6774,-0.0853 -0.976,-0.256 -0.288,-0.1813 -0.5227,-0.416 -0.704,-0.704 -0.1707,-0.2987 -0.256,-0.624 -0.256,-0.976 v -3.36 h 8.128 v -2.048 c 0,-0.1707 -0.064,-0.3147 -0.192,-0.432 -0.1174,-0.128 -0.2614,-0.192 -0.432,-0.192 h -7.504 v -1.312 h 7.504 c 0.3626,0 0.688,0.0907 0.976,0.272 0.2986,0.1707 0.5333,0.4053 0.704,0.704 0.1813,0.288 0.272,0.608 0.272,0.96 v 7.344 z m 0,-1.312 h 6.192 v -2.672 h -6.816 v 2.048 c 0,0.1707 0.0586,0.32 0.176,0.448 0.128,0.1173 0.2773,0.176 0.448,0.176 z m 9.0952,1.312 v -7.344 c 0,-0.352 0.0853,-0.672 0.256,-0.96 0.1813,-0.2987 0.416,-0.5333 0.704,-0.704 0.2987,-0.1813 0.624,-0.272 0.976,-0.272 h 5.2165 v 1.312 h -5.2165 c -0.1707,0 -0.32,0.064 -0.448,0.192 -0.1173,0.1173 -0.176,0.2613 -0.176,0.432 v 7.344 z m 8.2195,0 v -12.32 h 1.312 v 7.024 h 2.56 l 3.648,-3.984 h 1.728 v 0.016 l -4.208,4.624 4.192,4.624 v 0.016 h -1.712 l -3.648,-3.984 h -2.56 v 3.984 z m 10.424,0 v -11.52 h 9.104003 c 0.352,0 0.672,0.0853 0.96,0.256 0.298,0.1707 0.533,0.4053 0.704,0.704 0.17,0.288 0.256,0.608 0.256,0.96 v 2.448 c 0,0.1493 -0.022,0.2987 -0.064,0.448 -0.032,0.1387 -0.08,0.272 -0.144,0.4 0.234,0.352 0.41,0.656 0.528,0.912 0.117,0.256 0.176,0.5173 0.176,0.784 v 2.688 c 0,0.352 -0.086,0.6773 -0.256,0.976 -0.171,0.288 -0.406,0.5173 -0.704,0.688 -0.288,0.1707 -0.608,0.256 -0.96,0.256 z m 1.92,-1.296 h 7.680003 c 0.17,0 0.314,-0.0587 0.432,-0.176 0.128,-0.128 0.192,-0.2773 0.192,-0.448 v -2.688 c 0,-0.1707 -0.064,-0.3147 -0.192,-0.432 -0.118,-0.128 -0.262,-0.192 -0.432,-0.192 h -7.680003 c -0.171,0 -0.32,0.064 -0.448,0.192 -0.118,0.1173 -0.176,0.2613 -0.176,0.432 v 2.688 c 0,0.1707 0.058,0.32 0.176,0.448 0.128,0.1173 0.277,0.176 0.448,0.176 z m 0,-5.232 h 7.184003 c 0.17,0 0.314,-0.0587 0.432,-0.176 0.117,-0.128 0.176,-0.2773 0.176,-0.448 v -2.448 c 0,-0.1707 -0.059,-0.3147 -0.176,-0.432 -0.118,-0.128 -0.262,-0.192 -0.432,-0.192 h -7.184003 c -0.171,0 -0.32,0.064 -0.448,0.192 -0.118,0.1173 -0.176,0.2613 -0.176,0.432 v 2.448 c 0,0.1707 0.058,0.32 0.176,0.448 0.128,0.1173 0.277,0.176 0.448,0.176 z m 11.376003,6.528 v -11.52 h 10.512 v 1.296 h -9.216 v 3.808 h 7.408 v 1.312 h -7.408 v 3.808 h 9.216 v 1.296 z m 21.946,0 -3.76,-4.48 h 1.696 l 3.776,4.464 v 0.016 z m -9.728,0 v -11.504 h 9.6 c 0.352,0 0.672,0.0907 0.96,0.272 0.299,0.1707 0.534,0.4 0.704,0.688 0.171,0.288 0.256,0.608 0.256,0.96 v 3.376 c 0,0.352 -0.085,0.672 -0.256,0.96 -0.17,0.288 -0.405,0.5227 -0.704,0.704 -0.288,0.1707 -0.608,0.256 -0.96,0.256 h -8.304 v 4.288 z m 1.92,-5.6 h 7.68 c 0.171,0 0.315,-0.0587 0.432,-0.176 0.128,-0.1173 0.192,-0.2613 0.192,-0.432 v -3.376 c 0,-0.1707 -0.064,-0.3147 -0.192,-0.432 -0.117,-0.128 -0.261,-0.192 -0.432,-0.192 h -7.68 c -0.17,0 -0.32,0.064 -0.448,0.192 -0.117,0.1173 -0.176,0.2613 -0.176,0.432 v 3.376 c 0,0.1707 0.059,0.3147 0.176,0.432 0.128,0.1173 0.278,0.176 0.448,0.176 z m 15.827,5.6 v -10.224 h -5.12 v -1.296 h 11.52 v 1.296 h -5.104 v 10.224 z"
     fill="#161616"
     id="path1" />
  <defs
     id="defs3">
    <filter
       id="filter0_dg_8_842"
       x="3.8147e-06"
       y="-1.14441e-05"
       width="177.10001"
       height="177.10001"
       filterUnits="userSpaceOnUse"
       color-interpolation-filters="sRGB">
      <feFlood
         flood-opacity="0"
         result="BackgroundImageFix"
         id="feFlood1" />
      <feColorMatrix
         in="SourceAlpha"
         type="matrix"
         values="0 0 0 0 0 0 0 0 0 0 0 0 0 0 0 0 0 0 127 0"
         result="hardAlpha"
         id="feColorMatrix1" />
      <feOffset
         dx="32"
         id="feOffset1" />
      <feComposite
         in2="hardAlpha"
         operator="out"
         id="feComposite1" />
      <feColorMatrix
         type="matrix"
         values="0 0 0 0 0.00428891 0 0 0 0 0.0930694 0 0 0 0 0.892094 0 0 0 0.56 0"
         id="feColorMatrix2" />
      <feBlend
         mode="normal"
         in2="BackgroundImageFix"
         result="effect1_dropShadow_8_842"
         id="feBlend2" />
      <feBlend
         mode="normal"
         in="SourceGraphic"
         in2="effect1_dropShadow_8_842"
         result="shape"
         id="feBlend3" />
      <feTurbulence
         type="fractalNoise"
         baseFrequency="0.58479529619216919 0.58479529619216919"
         numOctaves="3"
         seed="2573"
         id="feTurbulence3" />
      <feDisplacementMap
         in="shape"
         scale="115.1"
         xChannelSelector="R"
         yChannelSelector="G"
         result="displacedImage"
         width="100%"
         height="100%"
         id="feDisplacementMap3" />
      <feMerge
         result="effect2_texture_8_842"
         id="feMerge3">
        <feMergeNode
           in="displacedImage"
           id="feMergeNode3" />
      </feMerge>
    </filter>
    <clipPath
       clipPathUnits="userSpaceOnUse"
       id="clipPath18">
      <rect
         style="opacity:0.549828;fill:#1a1a1a;fill-opacity:0.8;stroke-width:3.87911"
         id="rect18"
         width="177.55313"
         height="140.97968"
         x="14.312593"
         y="18.443018" />
    </clipPath>
  </defs>
</svg>
